<svg width="40" height="40" viewBox="0 0 40 40" fill="none" xmlns="http://www.w3.org/2000/svg">
<g id="instagram">
<path id="Vector" d="M28.3335 3.33334H11.6668C7.06446 3.33334 3.3335 7.0643 3.3335 11.6667V28.3333C3.3335 32.9357 7.06446 36.6667 11.6668 36.6667H28.3335C32.9359 36.6667 36.6668 32.9357 36.6668 28.3333V11.6667C36.6668 7.0643 32.9359 3.33334 28.3335 3.33334Z" stroke="#F2C94C" stroke-width="2" stroke-linecap="round" stroke-linejoin="round"/>
<path id="Vector_2" d="M26.6668 18.95C26.8725 20.3371 26.6356 21.7537 25.9898 22.9984C25.3439 24.243 24.3221 25.2524 23.0695 25.8828C21.817 26.5132 20.3976 26.7327 19.0131 26.5099C17.6287 26.2871 16.3498 25.6335 15.3582 24.6419C14.3667 23.6504 13.7131 22.3715 13.4903 20.987C13.2675 19.6026 13.4869 18.1832 14.1174 16.9306C14.7478 15.6781 15.7571 14.6562 17.0018 14.0104C18.2465 13.3646 19.6631 13.1277 21.0502 13.3333C22.465 13.5432 23.7749 14.2025 24.7863 15.2139C25.7977 16.2253 26.457 17.5351 26.6668 18.95Z" stroke="#F2C94C" stroke-width="2" stroke-linecap="round" stroke-linejoin="round"/>
<path id="Vector_3" d="M29.1668 10.8333H29.1835" stroke="#F2C94C" stroke-width="2" stroke-linecap="round" stroke-linejoin="round"/>
</g>
</svg>
