<svg width="42" height="42" viewBox="0 0 42 42" fill="none" xmlns="http://www.w3.org/2000/svg">
<g id="linkedin">
<path id="Vector" d="M28.0002 14C30.7849 14 33.4556 15.1062 35.4248 17.0754C37.3939 19.0445 38.5002 21.7152 38.5002 24.5V36.75H31.5002V24.5C31.5002 23.5717 31.1314 22.6815 30.475 22.0251C29.8186 21.3687 28.9284 21 28.0002 21C27.0719 21 26.1817 21.3687 25.5253 22.0251C24.8689 22.6815 24.5002 23.5717 24.5002 24.5V36.75H17.5002V24.5C17.5002 21.7152 18.6064 19.0445 20.5755 17.0754C22.5447 15.1062 25.2154 14 28.0002 14V14Z" stroke="#F2C94C" stroke-width="2" stroke-linecap="round" stroke-linejoin="round"/>
<path id="Vector_2" d="M10.5002 15.75H3.50015V36.75H10.5002V15.75Z" stroke="#F2C94C" stroke-width="2" stroke-linecap="round" stroke-linejoin="round"/>
<path id="Vector_3" d="M7.00015 10.5C8.93315 10.5 10.5002 8.933 10.5002 7C10.5002 5.067 8.93315 3.5 7.00015 3.5C5.06716 3.5 3.50015 5.067 3.50015 7C3.50015 8.933 5.06716 10.5 7.00015 10.5Z" stroke="#F2C94C" stroke-width="2" stroke-linecap="round" stroke-linejoin="round"/>
</g>
</svg>
