<svg width="40" height="40" viewBox="0 0 40 40" fill="none" xmlns="http://www.w3.org/2000/svg">
<g id="youtube">
<g clip-path="url(#clip0_1_65)">
<path id="Vector" d="M37.5669 10.7C37.3689 9.90901 36.9657 9.18428 36.3979 8.599C35.8302 8.01372 35.1181 7.58863 34.3335 7.36666C31.4668 6.66666 20.0002 6.66666 20.0002 6.66666C20.0002 6.66666 8.53351 6.66666 5.66685 7.43332C4.88226 7.6553 4.17014 8.08039 3.60242 8.66567C3.03471 9.25094 2.63149 9.97567 2.43351 10.7667C1.90887 13.6759 1.65224 16.6272 1.66685 19.5833C1.64815 22.5617 1.90479 25.5355 2.43351 28.4667C2.65178 29.2331 3.06402 29.9302 3.63042 30.4908C4.19682 31.0513 4.89821 31.4563 5.66685 31.6667C8.53351 32.4333 20.0002 32.4333 20.0002 32.4333C20.0002 32.4333 31.4668 32.4333 34.3335 31.6667C35.1181 31.4447 35.8302 31.0196 36.3979 30.4343C36.9657 29.849 37.3689 29.1243 37.5669 28.3333C38.0874 25.446 38.3441 22.5172 38.3335 19.5833C38.3522 16.6049 38.0956 13.6312 37.5669 10.7V10.7Z" stroke="#F2C94C" stroke-width="2" stroke-linecap="round" stroke-linejoin="round"/>
<path id="Vector_2" d="M16.2502 25.0333L25.8335 19.5833L16.2502 14.1333V25.0333Z" stroke="#F2C94C" stroke-width="2" stroke-linecap="round" stroke-linejoin="round"/>
</g>
</g>
<defs>
<clipPath id="clip0_1_65">
<rect x="0.000183105" width="40" height="40" rx="10" fill="white"/>
</clipPath>
</defs>
</svg>
